<?xml version="1.0" standalone="no"?>
<!DOCTYPE svg PUBLIC "-//W3C//DTD SVG 20010904//EN"
 "http://www.w3.org/TR/2001/REC-SVG-20010904/DTD/svg10.dtd">
<svg version="1.0" xmlns="http://www.w3.org/2000/svg"
 width="980.000000pt" height="980.000000pt" viewBox="0 0 980.000000 980.000000"
 preserveAspectRatio="xMidYMid meet">

<g transform="translate(0.000000,980.000000) scale(0.100000,-0.100000)"
fill="#ffffff" stroke="none">
<path d="M4560 9789 c-1035 -75 -1998 -463 -2800 -1128 -150 -123 -501 -475
-622 -621 -881 -1068 -1270 -2403 -1098 -3765 119 -934 501 -1801 1124 -2545
98 -117 370 -393 496 -504 1328 -1166 3158 -1531 4825 -962 895 305 1700 879
2281 1627 735 946 1100 2126 1024 3314 -70 1094 -491 2109 -1216 2935 -112
128 -386 398 -509 501 -763 642 -1665 1026 -2665 1134 -174 19 -664 27 -840
14z m-1236 -2354 c247 -44 406 -236 406 -492 0 -225 -146 -410 -370 -468 -39
-10 -104 -17 -161 -17 -161 0 -272 43 -374 146 -74 73 -111 145 -132 256 -54
272 122 525 400 575 94 17 135 17 231 0z m3155 -1334 c200 -51 336 -126 472
-261 52 -52 113 -122 134 -155 97 -147 167 -331 207 -538 21 -109 22 -136 25
-1194 l4 -1083 -495 0 -495 0 -4 988 c-3 985 -3 987 -25 1071 -72 269 -227
401 -473 401 -143 0 -261 -50 -364 -154 -79 -79 -145 -194 -164 -284 -8 -37
-11 -354 -11 -1037 l0 -985 -499 0 -499 0 -6 1508 c-3 829 -9 1546 -12 1595
l-5 87 429 0 429 0 6 -37 c3 -21 14 -120 23 -220 12 -118 22 -183 29 -183 7 0
29 24 49 54 47 68 182 199 261 253 132 89 301 159 452 188 119 22 421 14 532
-14z m-2779 -1636 l0 -1595 -495 0 -495 0 0 1595 0 1595 495 0 495 0 0 -1595z"/>
</g>
</svg>
